<?xml version="1.0" standalone="no"?><!DOCTYPE svg PUBLIC "-//W3C//DTD SVG 1.1//EN" "http://www.w3.org/Graphics/SVG/1.1/DTD/svg11.dtd"><svg t="1749300926335" class="icon" viewBox="0 0 1024 1024" version="1.1" xmlns="http://www.w3.org/2000/svg" p-id="2026" xmlns:xlink="http://www.w3.org/1999/xlink" width="200" height="200"><path d="M849.92 489.6c3.92 107.86-15.12 215.38-55.78 314.83-23.86 50.51-66.64 110.88-134.4 110.88h-210.9a97.091 97.091 0 0 1-46.37-23.63A435.234 435.234 0 0 1 290.92 733.2c-85.57-181.66-112-239.01-112.34-239.46-10.42-22.74-3.58-49.84 16.24-64.51 8.74-5.49 19.26-7.06 29.01-4.26 10.86 3.25 19.82 10.98 24.98 21.17 0 0.22 0.22 0.45 0.45 0.45l65.86 121.3c5.26 20.61 24.3 34.5 45.02 32.59 19.26-8.85 29.68-30.58 24.98-51.86V198.4c0-23.97 18.93-43.46 42.22-43.46s42.11 19.49 42.11 43.46v291.2c-0.22 7.95 3.7 15.57 10.42 19.6 6.72 4.14 15.01 4.14 21.73 0 6.61-4.03 10.64-11.65 10.3-19.6v-336c0-15.46 8.06-29.79 21.06-37.52 13.1-7.84 29.23-7.84 42.22 0 13.1 7.73 21.17 22.06 21.17 37.52v336c-0.34 8.06 3.58 15.57 10.3 19.71a21.04 21.04 0 0 0 21.73 0c6.72-4.14 10.64-11.65 10.3-19.71V198.4c0-15.46 8.06-29.79 21.17-37.52a41.132 41.132 0 0 1 42.11 0c13.1 7.73 21.17 22.06 21.17 37.52v336c0 7.84 4.03 15.01 10.64 18.93 6.5 3.92 14.56 3.92 21.17 0 6.61-3.92 10.64-11.09 10.64-18.93V332.8c0-15.46 7.95-29.79 21.06-37.52s29.12-7.73 42.22 0 21.06 22.06 21.06 37.52v156.8z m-42-246.4c-14.9 0-29.57 4.14-42.34 12.1v-56.9c0.56-48.72-37.41-88.82-84.78-89.6-16.8 0-33.15 5.38-46.82 15.23C622.89 88.3 590.64 64 554.13 64c-36.4 0-68.77 24.3-79.97 60.03a80.113 80.113 0 0 0-47.04-15.23c-47.26 0.9-85.01 40.99-84.45 89.6v330.4l-56.78-104.61c-10.53-20.83-28.9-36.29-50.74-42.67-21-6.17-43.65-2.9-62.05 8.96-39.09 26.99-52.98 79.3-32.59 122.86 1.46 2.8 28.34 61.26 112.67 239.68a468.072 468.072 0 0 0 129.36 178.53A118.516 118.516 0 0 0 448.51 960h211.23c36.29-0.11 71.57-13.1 99.57-36.85 31.02-26.99 55.78-60.7 72.58-98.78a805.431 805.431 0 0 0 60.48-334.88V332.8c0.67-48.72-37.08-88.7-84.45-89.6z" p-id="2027" fill="#165DFF"></path></svg>