<?xml version="1.0" standalone="no"?><!DOCTYPE svg PUBLIC "-//W3C//DTD SVG 1.1//EN" "http://www.w3.org/Graphics/SVG/1.1/DTD/svg11.dtd"><svg t="1749370611506" class="icon" viewBox="0 0 1024 1024" version="1.1" xmlns="http://www.w3.org/2000/svg" p-id="11333" xmlns:xlink="http://www.w3.org/1999/xlink" width="200" height="200"><path d="M853.333333 85.333333H170.666667C99.946667 85.333333 42.666667 142.613333 42.666667 213.333333v426.666667c0 70.72 57.28 128 128 128h298.666666v85.333333H341.333333a42.666667 42.666667 0 0 0 0 85.333334h341.333334a42.666667 42.666667 0 0 0 0-85.333334H554.666667v-85.333333h298.666666c70.72 0 128-57.28 128-128V213.333333c0-70.72-57.28-128-128-128z m42.666667 554.666667c0 23.573333-19.093333 42.666667-42.666667 42.666667H170.666667c-23.573333 0-42.666667-19.093333-42.666667-42.666667V213.333333c0-23.573333 19.093333-42.666667 42.666667-42.666666h682.666666c23.573333 0 42.666667 19.093333 42.666667 42.666666v426.666667z" p-id="11334" fill="#165DFF"></path></svg>