<?xml version="1.0" standalone="no"?><!DOCTYPE svg PUBLIC "-//W3C//DTD SVG 1.1//EN" "http://www.w3.org/Graphics/SVG/1.1/DTD/svg11.dtd"><svg class="icon" width="200px" height="200.00px" viewBox="0 0 1024 1024" version="1.1" xmlns="http://www.w3.org/2000/svg"><path fill="#5B5BF6" d="M825.856 153.6H359.629a44.8 44.8 0 0 0-44.8 44.8V288H198.656a44.8 44.8 0 0 0-44.851 44.8v492.8c0 24.73 20.07 44.8 44.8 44.8h492.8a44.8 44.8 0 0 0 44.8-44.8V708.66h89.6a44.8 44.8 0 0 0 44.8-44.8V198.4a44.8 44.8 0 0 0-44.749-44.8zM691.405 663.86V825.6H198.656V332.8h492.8v331.06z m132.608 0h-87.757V332.8a44.8 44.8 0 0 0-44.8-44.8H359.68v-89.6h466.125l-1.792 465.46z" /></svg>